<?xml version="1.0" encoding="utf-8"?>

<!DOCTYPE svg PUBLIC "-//W3C//DTD SVG 1.1//EN" "http://www.w3.org/Graphics/SVG/1.1/DTD/svg11.dtd">
<!-- Uploaded to: SVG Repo, www.svgrepo.com, Generator: SVG Repo Mixer Tools -->
<svg height="800px" width="800px" version="1.1" id="_x32_" xmlns="http://www.w3.org/2000/svg" xmlns:xlink="http://www.w3.org/1999/xlink"
	 viewBox="0 0 512 512"  xml:space="preserve"  fill='white'
          stroke='white'>
<style type="text/css">
	.st0{fill:'white';}
</style>
<g>
	<path fill='white' class="st0" d="M412.608,0H99.385C71.263,0,48.467,22.796,48.467,50.917v413.164c0,13.108,5.371,25.649,14.856,34.687
		c9.501,9.045,22.28,13.81,35.374,13.175l286.23-13.84v-0.008c10.65-0.09,20.869-2.285,30.16-6.222
		c14.252-6.028,26.337-16.066,34.882-28.719c8.559-12.645,13.564-27.987,13.564-44.367V50.917C463.533,22.796,440.737,0,412.608,0z
		 M433.955,418.788c-0.014,6.916-1.404,13.415-3.914,19.36c-3.764,8.904-10.098,16.537-18.046,21.9
		c-7.947,5.37-17.433,8.478-27.785,8.485c-6.513-0.008-12.966-1.562-19.151-4.698c-9.261-4.705-17.985-13.056-24.498-25.306
		c-6.514-12.234-10.77-28.36-10.77-48.184v-8.828c0-3.025-1.524-5.841-4.048-7.506c-2.525-1.658-5.722-1.942-8.485-0.74
		l-222.481,95.86c-3.704,1.591-7.962,1.224-11.33-0.994c-3.368-2.218-5.393-5.983-5.393-10.009V53.546
		c0-13.235,10.726-23.961,23.953-23.961h307.973c13.235,0,23.976,10.726,23.976,23.961V418.788z"/>
	<path fill='white' class="st0" d="M315.315,186.534h-11.772v12.234H203.348v-12.234h-11.779h-11.794h-14.73v139.024h38.302v-12.234h100.195
		v12.234h38.302V186.534h-14.729H315.315z M191.569,313.645h-11.794v-18.546h11.794V313.645z M191.569,281.871h-11.794v-18.546
		h11.794V281.871z M191.569,250.09h-11.794v-18.531h11.794V250.09z M191.569,218.316h-11.794v-18.538h11.794V218.316z
		 M303.543,299.753H203.348v-87.412h100.195V299.753z M327.116,313.645h-11.802v-18.546h11.802V313.645z M327.116,281.871h-11.802
		v-18.546h11.802V281.871z M327.116,250.09h-11.802v-18.531h11.802V250.09z M327.116,218.316h-11.802v-18.538h11.802V218.316z"/>
</g>
</svg>